<?xml version="1.0" standalone="no"?>
<!DOCTYPE svg PUBLIC "-//W3C//DTD SVG 1.1//EN" "http://www.w3.org/Graphics/SVG/1.1/DTD/svg11.dtd" >
<svg xmlns="http://www.w3.org/2000/svg">
<metadata>
Created by FontForge 20120731 at Thu Dec 15 15:14:53 2016
 By admin
</metadata>
<defs>
<font id="iconfont" horiz-adv-x="1024" >
  <font-face 
    font-family="iconfont"
    font-weight="500"
    font-stretch="normal"
    units-per-em="1024"
    panose-1="2 0 6 3 0 0 0 0 0 0"
    ascent="896"
    descent="-128"
    x-height="792"
    bbox="44 -73 972 843"
    underline-thickness="0"
    underline-position="0"
    unicode-range="U+0078-E70F"
  />
<missing-glyph 
 />
    <glyph glyph-name=".notdef" 
 />
    <glyph glyph-name=".notdef" 
 />
    <glyph glyph-name=".null" horiz-adv-x="0" 
 />
    <glyph glyph-name="nonmarkingreturn" horiz-adv-x="341" 
 />
    <glyph glyph-name="x" unicode="x" horiz-adv-x="1001" 
d="M281 543q-27 -1 -53 -1h-83q-18 0 -36.5 -6t-32.5 -18.5t-23 -32t-9 -45.5v-76h912v41q0 16 -0.5 30t-0.5 18q0 13 -5 29t-17 29.5t-31.5 22.5t-49.5 9h-133v-97h-438v97zM955 310v-52q0 -23 0.5 -52t0.5 -58t-10.5 -47.5t-26 -30t-33 -16t-31.5 -4.5q-14 -1 -29.5 -0.5
t-29.5 0.5h-32l-45 128h-439l-44 -128h-29h-34q-20 0 -45 1q-25 0 -41 9.5t-25.5 23t-13.5 29.5t-4 30v167h911zM163 247q-12 0 -21 -8.5t-9 -21.5t9 -21.5t21 -8.5q13 0 22 8.5t9 21.5t-9 21.5t-22 8.5zM316 123q-8 -26 -14 -48q-5 -19 -10.5 -37t-7.5 -25t-3 -15t1 -14.5
t9.5 -10.5t21.5 -4h37h67h81h80h64h36q23 0 34 12t2 38q-5 13 -9.5 30.5t-9.5 34.5q-5 19 -11 39h-368zM336 498v228q0 11 2.5 23t10 21.5t20.5 15.5t34 6h188q31 0 51.5 -14.5t20.5 -52.5v-227h-327z" />
    <glyph glyph-name="search" unicode="&#xe62d;" 
d="M959 -64q-7 -7 -16.5 -7t-16.5 7l-186 186q17 16 33 33l186 -187q7 -6 7 -15.5t-7 -16.5v0zM459 35q-109 0 -201 54t-146 146t-54 201t54 201t146 145.5t201 53.5t201 -53.5t145.5 -145.5t53.5 -201t-53.5 -201t-145.5 -146t-201 -54v0zM459 777q-93 0 -171.5 -45.5
t-124 -124t-45.5 -171.5t45.5 -171.5t124 -124t171.5 -45.5t171.5 45.5t124 124t45.5 171.5t-45.5 171.5t-124 124t-171.5 45.5v0z" />
    <glyph glyph-name="delete" unicode="&#xe60e;" 
d="M937 667h-57v-679q0 -24 -16.5 -40.5t-39.5 -16.5h-624q-23 0 -39.5 16.5t-16.5 40.5v679h-57q-12 0 -20 8.5t-8 20.5t8 20t20 8h113h170v85q0 12 8.5 20t20.5 8h226q12 0 20.5 -8t8.5 -20v-85h170h113q12 0 20 -8t8 -20t-8 -20.5t-20 -8.5zM597 781h-170v-57h170v57z
M824 611v28v28h-29h-566h-29v-28v-28v-595q0 -12 8.5 -20t20.5 -8h566q12 0 20.5 8t8.5 20v595zM654 469h56v-340h-56v340zM484 526h56v-397h-56v397zM314 469h56v-340h-56v340z" />
    <glyph glyph-name="person" unicode="&#xe600;" 
d="M512 -68q91 0 174.5 35.5t143.5 95.5t95.5 143.5t35.5 175t-35.5 174.5t-95.5 143t-143.5 95.5t-174.5 35.5t-174.5 -35.5t-143.5 -95.5t-95.5 -143t-35.5 -174.5t35.5 -175t95.5 -143.5t143.5 -95.5t174.5 -35.5zM360 124l-35 20l105 -43zM432 346v1l12 2q3 11 5 19
q-8 4 -15 14q-7 9 -18 31.5t-14 39.5q-13 30 -15 44q0 13 7 23q-10 65 21 105q27 33 76 41v2h21l22 -1q78 -6 94 -30q1 -1 1 -2h17l-20 -37q12 -33 5 -78q8 -10 7 -23q-1 -14 -14 -44q-3 -17 -14 -39.5t-18 -31.5q-7 -10 -15 -14q1 -8 5 -20l12 -2v-1q67 -14 108 -47t41 -74
q0 -13 -4 -25l-9 -19q-4 -6 -8 -11l-15 -15l-3 -3q-5 -4 -11 -9l-28 -16q-4 -2 -7 -3l-52 -18l-6 18l4 -18l-70 -11l-3 20l1 -20h-22l-78 7l-109 44l-24 24l-3 3l-4 6v0l-1 1q-12 19 -13 41v4q0 42 42 75.5t112 46.5z" />
    <glyph glyph-name="signout" unicode="&#xe60d;" 
d="M683 690q-10 5 -21.5 1t-17 -14.5t-1.5 -22t15 -17.5q87 -42 138 -124t51 -179q0 -92 -45 -169.5t-122 -123t-167.5 -45.5t-167.5 45.5t-121.5 123t-44.5 169.5q0 97 50.5 178.5t137.5 124.5q11 5 15 16.5t-1.5 22.5t-17 15t-21.5 -1q-102 -50 -160.5 -145.5
t-58.5 -209.5q0 -107 52 -198t142 -144t195.5 -53t195.5 53t142.5 144t52.5 198q0 114 -59 209.5t-161 145.5zM512.5 498q11.5 0 20 8t8.5 20v278q0 12 -8.5 20t-20 8t-19.5 -8t-8 -20v-278q0 -12 8 -20t19.5 -8z" />
    <glyph glyph-name="rename" unicode="&#xe601;" 
d="M621 684l182 -183l-461 -464l-182 183zM941 728l-81 82q-24 24 -57 24t-57 -24l-78 -78l182 -184l91 92q18 18 18 44t-18 44zM64 -38q-2 -11 6 -19t19 -5l203 49l-182 183z" />
    <glyph glyph-name="close" unicode="&#xe610;" 
d="M513 833q-91 0 -173.5 -35.5t-142.5 -95.5t-95.5 -143t-35.5 -174t35.5 -173.5t95.5 -142.5t142.5 -95.5t173.5 -35.5t174 35.5t143 95.5t95 142.5t35 173.5t-35 174t-95 143t-143 95.5t-174 35.5zM736 245l-82 -83q-131 141 -141 141q-4 0 -39 -35.5t-68 -70.5l-33 -35
l-83 83q140 129 140 140q0 5 -35 40.5t-70 67.5l-35 33l83 82q132 -140 140 -140q4 0 39 35t68 70l34 35l82 -82q-140 -131 -140 -141q0 -9 140 -140z" />
    <glyph glyph-name="true" unicode="&#xe611;" 
d="M512 384zM64 384q0 91 35.5 174t95.5 143t143 95.5t174 35.5t174 -35.5t143 -95.5t95.5 -143t35.5 -174t-35.5 -174t-95.5 -143t-143 -95.5t-174 -35.5t-174 35.5t-143 95.5t-95.5 143t-35.5 174zM821 553l-56 56l-353 -353l-136 136l-56 -56l170 -170l15 15l22 -22z" />
    <glyph glyph-name="master" unicode="&#xe603;" 
d="M512 -55q-91 0 -174 35.5t-143.5 95.5t-96 143t-35.5 174.5t35.5 174.5t96 143t143.5 95.5t174 35.5t174 -35.5t143.5 -95.5t96 -143t35.5 -174.5t-35.5 -174.5t-96 -143t-143.5 -95.5t-174 -35.5zM512 786q-107 0 -197 -52.5t-143 -143t-53 -197.5q0 -88 37.5 -166.5
t103.5 -133.5v-8h10q107 -84 242 -84t242 84h10v8q66 55 103.5 133.5t37.5 166.5q0 107 -53 197.5t-143 143t-197 52.5zM764 393q0 105 -73.5 179t-178.5 74t-178.5 -74t-73.5 -179h-56q0 128 90 218.5t218 90.5t218 -90.5t90 -218.5h-56zM260 217q-1 1 -3 4t-3 4h6v-8z
M504 281l66 260q3 11 13 17t21 3t16.5 -13.5t2.5 -21.5l-65 -258q38 -25 38 -71q0 -35 -24.5 -59.5t-59.5 -24.5t-59.5 24.5t-24.5 59.5q0 33 22 57t54 27zM484 169h56v56h-56v-56zM764 217v8h6q-1 -1 -3 -4t-3 -4z" />
    <glyph glyph-name="setup" unicode="&#xe60f;" 
d="M438 822q-17 -6 -18 -23l-4 -74q-39 -11 -75 -32l-41 46q-11 13 -28 7q-40 -14 -70.5 -41t-49.5 -65q-7 -15 4 -29l49 -55q-19 -36 -30 -75l-61 3q-18 1 -25 -15q-19 -37 -21.5 -78t11.5 -81q5 -17 23 -18l74 -4q11 -40 32 -75l-46 -41q-14 -11 -8 -28q14 -40 41 -71
q28 -30 65 -49q16 -8 29 4l56 49q35 -20 75 -30l-4 -61q-1 -18 15 -26q38 -18 79 -21h4v53h-0.5h-0.5q-22 1 -43 9l4 64q1 10 -5 18t-16 10q-53 11 -98 38q-16 11 -31 -2l-56 -49q-18 11 -33 28t-25 37l49 43q7 6 8.5 16t-4.5 18q-29 45 -41 97q-4 19 -24 20l-74 4
q-5 22 -4 44.5t9 43.5l64 -4q10 -1 18 5t10 16q11 53 39 97q10 17 -3 32l-49 55q12 19 28 34q17 14 37 24l43 -48q7 -7 16.5 -8.5t17.5 3.5q45 30 97 42q19 4 20 24l5 74q21 5 42 4v52q-38 2 -76 -11zM962.5 391q-2.5 41 -21.5 78q-7 16 -25 15l-61 -3q-11 39 -30 75l49 55
q11 14 3 29q-18 38 -49 65t-70 41q-17 6 -29 -7l-40 -46q-36 21 -75 32l-5 74q-1 17 -17 23q-38 13 -76 11v-52q21 1 42 -4l5 -74q1 -20 20 -24q51 -12 97 -42q8 -5 17.5 -3.5t16.5 8.5l42 48q21 -10 37 -24q17 -15 29 -34l-49 -55q-13 -15 -3 -32q28 -44 39 -97
q2 -10 9.5 -16t17.5 -5l65 4q7 -21 9 -44q1 -22 -4 -44l-74 -4q-20 -1 -24 -20q-12 -52 -42 -97q-5 -8 -3.5 -18t8.5 -16l48 -43q-9 -20 -24 -37t-34 -28l-55 49q-15 13 -32 2q-44 -27 -97 -38q-10 -2 -16 -10t-5 -18l4 -64q-21 -8 -43 -9h-1v0v-53h4q41 3 79 21q15 8 14 26
l-3 61q40 11 75 30l56 -49q13 -12 29 -4q37 19 65 49q27 31 40 71q6 17 -7 28l-46 41q21 35 32 75l74 4q18 1 23 18q14 40 11.5 81zM515 231q-64 0 -109.5 45.5t-45.5 110t45.5 110t109.5 45.5t109.5 -45.5t45.5 -110t-45.5 -110t-109.5 -45.5v0zM515 482q-40 0 -68 -28
t-28 -67.5t28 -68t68 -28.5t68 28.5t28 68t-28 67.5t-68 28v0zM515 482z" />
    <glyph glyph-name="uploadfile" unicode="&#xe605;" 
d="M283.5 750q-4.5 0 -8 -3.5t-3.5 -8t3.5 -8t8 -3.5t8 3.5t3.5 8t-3.5 8t-8 3.5zM215.5 348q-63.5 0 -108.5 -44.5t-45 -107.5t45 -107.5t108.5 -44.5t108 44.5t44.5 107.5t-44.5 107.5t-108 44.5zM317 183q0 -9 -9 -9t-9 9v28l-62 -62q-3 -3 -6.5 -3t-5.5 3l-54 54
l-54 -54q-6 -6 -12.5 0t0.5 13l60 59q6 6 12 0l54 -53l56 56h-28q-9 0 -9 8.5t9 8.5h49h2h0.5h0.5q1 0 1 -0.5t0.5 -0.5h0.5q2 -1 3 -3v0v0v-1l1 -1v-0.5v-0.5v-2v-49zM215.5 750q-4.5 0 -8 -3.5t-3.5 -8t3.5 -8t8 -3.5t8 3.5t3.5 8t-3.5 8t-8 3.5zM939 294h-1
q-8 0 -13.5 -5.5t-5.5 -12.5v-77q0 -9 -8.5 -9t-8.5 9v77q0 7 -5.5 12.5t-13.5 5.5v0q-8 0 -13.5 -5.5t-5.5 -12.5v-77q0 -9 -9 -9t-9 9v77q0 7 -5.5 12.5t-12.5 5.5h-1q-14 0 -18 -13v-82q0 -9 -9 -9h-1q-8 0 -8 9v77v7v71q0 7 -5 12.5t-13 5.5h-1q-7 0 -12.5 -5.5
t-5.5 -12.5v-202q0 -9 -6.5 -15.5t-15.5 -6.5h-1q-15 0 -25.5 11t-10.5 26v8q0 36 -28 49q-3 1 -5.5 -0.5t-2.5 -4.5v-72q0 -20 15 -34l70 -70q27 -27 35 -64h178v297q0 7 -5.5 12.5t-12.5 5.5zM351.5 750q-4.5 0 -8 -3.5t-3.5 -8t3.5 -8t8 -3.5t8 3.5t3.5 8t-3.5 8t-8 3.5z
M902 753q0 13 -9.5 23t-23.5 10h-675q-13 0 -23 -10t-10 -23v-55h741v55zM215 710q-12 0 -20.5 8.5t-8.5 20.5t8.5 20.5t20.5 8.5t20.5 -8.5t8.5 -20.5t-8.5 -20.5t-20.5 -8.5zM283 710q-12 0 -20.5 8.5t-8.5 20.5t8.5 20.5t20.5 8.5t20.5 -8.5t8.5 -20.5t-8.5 -20.5
t-20.5 -8.5zM351 710q-12 0 -20.5 8.5t-8.5 20.5t8.5 20.5t20.5 8.5t20.5 -8.5t8.5 -20.5t-8.5 -20.5t-20.5 -8.5zM674 240q39 -18 39 -65v-8q0 -8 5.5 -13.5t12.5 -5.5h1q4 0 4 4v202q0 15 10.5 25.5t25.5 10.5h1q15 0 25.5 -10.5t10.5 -25.5v-47q8 5 18 5h1q16 0 27 -13
q11 13 28 13v0q10 0 19 -5v374h-741v-324q27 9 54 9q71 0 121 -50t50 -120q0 -30 -11 -58h267v9v72q0 12 10.5 19t21.5 2zM507 329q-5 0 -8.5 3.5t-3.5 8.5v106l-27 -26q-11 -12 -16 -6q-8 8 0 16l47 47q5 5 10 0l47 -47q9 -8 0 -16q-3 -4 -8 -4q-1 0 -2.5 2t-3.5 4.5
t-2 3.5l-27 26v-106q0 -12 -6 -12zM636 365h-82q-5 0 -8.5 3t-3.5 8q0 6 12 6h82q14 0 27.5 13.5t13.5 27.5q0 15 -10.5 28t-24.5 13q-5 0 -8.5 3.5t-3.5 8.5q0 43 -33.5 74t-77.5 31q-40 0 -72.5 -24t-39.5 -60q-1 -10 -11 -10h-12q-19 0 -33 -16t-14 -36t17 -36.5
t36 -16.5h70q12 0 12 -6q0 -5 -3.5 -8t-8.5 -3h-70q-29 0 -49.5 20.5t-20.5 49.5t20.5 49.5t49.5 20.5h2q12 41 47 67t80 26q50 0 87 -34t41 -84q20 -4 33.5 -20t13.5 -37q0 -24 -17 -41t-41 -17z" />
    <glyph glyph-name="relation" unicode="&#xe606;" 
d="M117 18h551v30h-551v-30zM443 285h225v30h-225v-30zM117 107h551v30h-551v-30zM117 196h255v208h-255v-208zM443 374h225v30h-225v-30zM278 655v-32q4 -6 8.5 -6t6.5 3l2 3v30q0 14 8.5 25t21.5 10q1 -1 26 -1t50 1h24h4l-27 -47q-5 -12 5 -12q5 0 9 3t5 6l2 3l32 56
l-32 56q-3 12 -16 12q-5 0 -6 -3t0 -6l1 -3l27 -48q-2 1 -4 1l-25.5 -0.5t-48 -0.5t-26.5 1q-17 0 -30.5 -11.5t-16.5 -28.5v-1q-1 -7 -1 -13l0.5 1t0.5 2zM508 578q13 0 64.5 0.5t97.5 0.5h46q3 -1 8 -2t13 -9t8 -19q0 -13 -0.5 -140t-0.5 -135l217 2v428h-453v-126z
M562.5 774q-4.5 0 -8 -3.5t-3.5 -8t3.5 -8t8 -3.5t8 3.5t3.5 8t-3.5 8t-8 3.5zM64 -36h427q9 2 60.5 0.5t112 -1t60.5 4.5v487h-661zM425 421h261v-65h-261v65zM425 333h261v-66h-261v66zM425 244h261v-66h-261v66zM99 421h291v-243h-291v243zM99 155h587v-65h-587v65z
M99 66h587v-65h-587v65zM700 774q-5 0 -8 -3.5t-3 -8t3 -8t8 -3.5t8.5 3.5t3.5 8t-3.5 8t-8.5 3.5zM928 810h-387q-14 0 -23.5 -9.5t-9.5 -23.5v-55h453v55q0 14 -9.5 23.5t-23.5 9.5zM562.5 733q-12.5 0 -21 8.5t-8.5 20.5t8.5 21t21 9t21 -9t8.5 -21t-8.5 -20.5t-21 -8.5z
M631 733q-12 0 -20.5 8.5t-8.5 20.5t8.5 21t20.5 9t21 -9t9 -21t-9 -20.5t-21 -8.5zM700 733q-12 0 -20.5 8.5t-8.5 20.5t8.5 21t20.5 9t20.5 -9t8.5 -21t-8.5 -20.5t-20.5 -8.5zM631 774q-5 0 -8 -3.5t-3 -8t3 -8t8 -3.5t8.5 3.5t3.5 8t-3.5 8t-8.5 3.5zM187 525
q-5 0 -8.5 -3.5t-3.5 -8t3.5 -8t8.5 -3.5t8 3.5t3 8t-3 8t-8 3.5zM118 525q-5 0 -8 -3.5t-3 -8t3 -8t8 -3.5t8.5 3.5t3.5 8t-3.5 8t-8.5 3.5zM255.5 525q-4.5 0 -8 -3.5t-3.5 -8t3.5 -8t8 -3.5t8 3.5t3.5 8t-3.5 8t-8 3.5zM917 214q-5 6 -9.5 6t-6.5 -3l-2 -3v-77
q0 -15 -8.5 -25.5t-21.5 -10.5q0 1 -15 1.5t-29 -0.5l-15 -1h-3l27 48q5 12 -6 12q-4 0 -8 -3t-6 -6l-1 -3l-32 -56l32 -57q3 -12 16 -12q4 0 5.5 3t0.5 6l-1 3l-27 48h4l14.5 0.5t28 0.5t15.5 -1q21 0 35.5 16t12.5 37l-1 -1v6q1 29 1 72zM691 561h-594q-14 0 -24 -9.5
t-10 -23.5v-55h661v55q0 14 -9.5 23.5t-23.5 9.5zM118 484q-12 0 -20.5 8.5t-8.5 21t8.5 21t20.5 8.5t20.5 -8.5t8.5 -21t-8.5 -21t-20.5 -8.5zM187 484q-12 0 -20.5 8.5t-8.5 21t8.5 21t20.5 8.5t20.5 -8.5t8.5 -21t-8.5 -21t-20.5 -8.5zM256 484q-12 0 -21 8.5t-9 21t9 21
t21 8.5t20.5 -8.5t8.5 -21t-8.5 -21t-20.5 -8.5zM443 196h225v30h-225v-30z" />
    <glyph glyph-name="api" unicode="&#xe607;" 
d="M633 17v-35h169v43h-169v-8zM313 241v108q-49 4 -82 40t-33 85q0 52 37.5 89t89.5 37q42 0 75.5 -24.5t45.5 -64.5h144v15h-37q-7 0 -8 6q-8 29 -23 56q-4 5 1 10l26 26l-73 72l-26 -25q-5 -5 -11 -2q-26 16 -56 23q-6 2 -6 9v36h-104v-36q0 -7 -6 -9q-30 -7 -56 -23
q-6 -3 -10 2l-26 25l-74 -72l26 -26q5 -5 2 -10q-16 -27 -24 -56q-1 -6 -8 -6h-37v-103h37q7 0 8 -6q8 -30 24 -56q3 -6 -2 -10l-26 -26l74 -73l26 26q4 4 10 1q26 -15 56 -23q6 -2 6 -8v-36h104v20h-56q-8 0 -8 9zM896 343h-32v-32h32v32zM325 584q-45 0 -77.5 -32.5
t-32.5 -77.5q0 -42 28 -73t70 -35v137q0 8 8 8h108q-12 33 -40.5 53t-63.5 20zM585 203h1q4 0 4 4v25h-23v-4v-7q0 -8 5.5 -13t12.5 -5zM581 311h9v32h-9v-32zM612 435h-31v-31h9q3 20 22 28v3zM784 343h-1q-7 0 -12.5 -5.5t-5.5 -12.5v-74q0 -8 -8.5 -8t-8.5 8v74
q0 7 -5 12.5t-12 5.5h-1q-7 0 -12.5 -5.5t-5.5 -12.5v-74q0 -8 -8.5 -8t-8.5 8v74q0 7 -5 12.5t-13 5.5v0q-13 0 -17 -13v-79q0 -8 -9 -8v0q-9 0 -9 8v74q0 3 1 7v67q0 8 -5.5 13t-12.5 5h-1q-7 0 -12 -5t-5 -13v-192q0 -9 -6.5 -15t-14.5 -6h-1q-14 0 -24 10t-10 25v7
q0 35 -28 47q-2 1 -4.5 -0.5t-2.5 -3.5v-68q0 -20 14 -33l67 -67q27 -26 34 -62h171v197q-1 2 -1 3t1 3v81q0 7 -5.5 12.5t-12.5 5.5zM801 435h-31v-31h31v31zM896 435h-32v-31h32v31zM823.5 714q-4.5 0 -8 -3.5t-3.5 -8t3.5 -8t8 -3.5t8 3.5t3.5 8t-3.5 8t-8 3.5zM756 714
q-5 0 -8.5 -3.5t-3.5 -8t3.5 -8t8.5 -3.5t8.5 3.5t3.5 8t-3.5 8t-8.5 3.5zM518 435h-31v-31h31v31zM891 714q-5 0 -8 -3.5t-3 -8t3 -8t8 -3.5t8.5 3.5t3.5 8t-3.5 8t-8.5 3.5zM675 435v-31h32v31h-32zM423 343h-31v-32h31v32zM518 343h-31v-32h31v32zM423 435h-31v-31h31v31
zM689 786v-203l41 40q2 2 6 2h222v161h-269zM756 674q-12 0 -20.5 8.5t-8.5 20t8.5 20t20.5 8.5t20 -8.5t8 -20t-8 -20t-20 -8.5zM823.5 674q-11.5 0 -20 8.5t-8.5 20t8.5 20t20 8.5t20 -8.5t8.5 -20t-8.5 -20t-20 -8.5zM891.5 674q-11.5 0 -20 8.5t-8.5 20t8.5 20t20 8.5
t20 -8.5t8.5 -20t-8.5 -20t-20 -8.5zM330 249h170v22q0 12 10 18t20 1q27 -12 35 -41h25v46h-17q-9 0 -9 8v48q0 8 9 8h17v29h-17q-9 0 -9 8v48q0 8 9 8h48q8 0 8 -8v-10q23 -3 30 -26v36q0 8 8 8h48q9 0 9 -8v-48q0 -8 -9 -8h-48q-5 0 -7 4v-37q8 4 17 4v0q16 0 27 -12
q10 12 26 12h1q15 0 26 -12q10 12 26 12h1q14 0 24.5 -10t10.5 -24v-76h139v245h-628v-245zM847 444q0 8 9 8h48q8 0 8 -8v-48q0 -8 -8 -8h-48q-9 0 -9 8v48zM847 351q0 8 9 8h48q8 0 8 -8v-48q0 -8 -8 -8h-48q-9 0 -9 8v48zM753 444q0 8 8 8h49q8 0 8 -8v-48q0 -8 -8 -8
h-49q-8 0 -8 8v48zM470 444q0 8 8 8h48q9 0 9 -8v-48q0 -8 -9 -8h-48q-8 0 -8 8v48zM470 351q0 8 8 8h48q9 0 9 -8v-48q0 -8 -9 -8h-48q-8 0 -8 8v48zM375 444q0 8 9 8h48q8 0 8 -8v-48q0 -8 -8 -8h-48q-9 0 -9 8v48zM375 351q0 8 9 8h48q8 0 8 -8v-48q0 -8 -8 -8h-48
q-9 0 -9 8v48z" />
    <glyph glyph-name="analysis" unicode="&#xe608;" 
d="M857 152l-21 -21l-20 20v17q10 -1 20.5 -1t20.5 1v-16zM732 93h-114q-1 15 -9 29h132q-8 -14 -9 -29zM755 139h-160q-18 17 -44 17v16q46 12 75.5 50.5t29.5 87.5q0 10 -1 20v1q-8 52 -48 87.5t-93 35.5q-59 0 -100.5 -42t-41.5 -102v-0.5v-0.5v-1v0q0 -48 29.5 -86
t74.5 -50v-16q-25 0 -44 -17h-159q-19 17 -44 17v16q46 12 75.5 50.5t29.5 87.5q0 10 -2 20v1q-7 52 -47 87l127 84h198q2 0 4 1l225 139v-188h-1.5h-1.5q-58 0 -100 -42t-42 -102v-0.5v-0.5v-1v0q1 -48 30.5 -86t74.5 -50v-16q-25 0 -44 -17zM534 152l-20 -21l-21 20v17
q11 -1 21 -1t20 1v-16zM457 360q57 -40 138 -40h44v-10q0 -52 -36.5 -89t-88.5 -37q-49 0 -85 33.5t-40 82.5q26 1 45 18t23 42zM389 317q3 50 39 85t86 35q44 0 78.5 -28.5t43.5 -71.5h-41q-84 0 -140 47q-4 3 -9 0.5t-5 -7.5v-6q0 -21 -15 -37t-37 -17zM410 93h-115
q-1 15 -8 29h132q-8 -14 -9 -29zM839 662l-232 -143h-197q-3 0 -5 -1l-134 -88q-36 24 -80 24h-1h-1v241h650v-33zM836 184q-49 0 -84.5 33.5t-39.5 82.5q25 1 44.5 18t23.5 42q57 -40 137 -40h44q1 -5 1 -10q0 -52 -37 -89t-89 -37zM959 337h-42q-84 0 -140 47q-4 3 -9 0.5
t-5 -7.5v-6q0 -21 -15 -37t-37 -17q3 50 39 85t86 35q45 0 79 -28.5t44 -71.5zM143 741h741v-295q-13 5 -28 7v251q0 8 -9 8h-666q-9 0 -9 -8v-251q-15 -2 -29 -7v295zM191 437q45 0 79 -28.5t44 -71.5h-42q-84 0 -140 47q-4 3 -9 0.5t-5 -7.5v-6q0 -21 -15 -37t-37 -17
q3 50 39 85t86 35zM67 300q25 1 44 18t23 42q58 -40 138 -40h44q1 -5 1 -10q0 -52 -37 -89t-89 -37q-49 0 -84.5 33.5t-39.5 82.5zM191 167q10 0 21 1v-16l-21 -21l-20 20v17q10 -1 20 -1zM278 31h-174v57q0 21 15 36t36 15h4l26 -26q3 -3 6.5 -3t5.5 3l26 26h5
q21 0 35.5 -15t14.5 -36v-57zM601 31h-174v57q0 21 14.5 36t35.5 15h4l27 -26q2 -3 5.5 -3t6.5 3l26 26h5q21 0 35.5 -15t14.5 -36v-57zM924 31h-175v57q0 21 15 36t36 15h4l26 -26q3 -3 6.5 -3t5.5 3l26 26h5q21 0 36 -15t15 -36v-57z" />
    <glyph glyph-name="customer" unicode="&#xe609;" 
d="M826 670h-234v-34h234v34zM387 482q-9 0 -15 -6t-6 -14t6 -14t15 -6t15 6t6 14t-6 14t-15 6zM269 500q14 0 24.5 -8.5t13.5 -20.5h43q3 12 13.5 20.5t23.5 8.5q2 0 5 -1l33 82h-189l29 -82q2 1 4 1zM202 232v36q0 24 18 42t43 18h148l114 81v371h-392v-548h69zM224 595
l6 4h208q5 0 7.5 -4t0.5 -8l-37 -94q16 -11 16 -31q0 -16 -11 -27t-27 -11q-13 0 -23.5 8.5t-13.5 20.5h-43q-3 -12 -13.5 -20.5t-24.5 -8.5q-15 0 -26.5 11t-11.5 27q0 21 18 32l-33 93v0v0v0q4 6 8 8zM269.5 482q-8.5 0 -14.5 -6t-6 -14t6 -14t14.5 -6t14.5 6t6 14t-6 14
t-14.5 6zM878 619h-286v-34h286v34zM202 215h-78q-8 0 -8 8v566q0 9 8 9h409q9 0 9 -9v-368l32 23v360q0 10 -7.5 17.5t-17.5 7.5h-440q-10 0 -17.5 -7.5t-7.5 -17.5v-621q0 -11 7.5 -18t17.5 -7h97q-4 9 -4 19v38zM655 -31h40v507h-40v-507zM405 311h-142
q-16 0 -28.5 -11.5t-14.5 -27.5h64q9 0 9 -8.5t-9 -8.5h-64v-24h64q9 0 9 -8.5t-9 -8.5h-64v-24h64q9 0 9 -8.5t-9 -8.5h-64q2 -16 14.5 -27t28.5 -11h142v176zM930 283v247l-172 -110zM713 392v0v-95q38 -16 48 -57h169v21l-187 150zM592 568v-111l49 35v0v0l1 1h0.5h1.5v0
q1 1 2 1h58q9 0 9 -9v-73l217 139v17h-338zM713 278v-111q32 19 32 55.5t-32 55.5zM423 130l214 -153v491l-214 -153v-185zM407 117h-130q27 -58 53 -95.5t69 -77.5q15 -14 32 -1l18 15q16 12 6 30q-33 57 -48 129z" />
    <glyph glyph-name="housekeeper" unicode="&#xe60a;" 
d="M767 62q-8 0 -12 6q-61 85 -61 103v32q-23 -19 -47 -34q-91 -56 -199.5 -56t-198.5 56q-1 0 -6 3v-154h663v600h-66v-447v-2q-2 -19 -61 -101q-4 -6 -12 -6zM780 314q-26 -52 -68 -94v-40h110v515h-110v-279q42 -42 68 -94q2 -4 0 -8zM822 730q0 6 -6.5 10t-14.5 4h-68
q-9 0 -15 -4t-6 -10v-17h110v17zM788 806h-42v-44h42v44zM818 162h-102q5 -11 18 -31h66q12 20 18 31zM787 112h-41q10 -14 21 -29q11 15 20 29zM927 674h-87v-38h75q9 0 9 -9v-618q0 -10 -9 -10h-681q-9 0 -9 10v176q-71 52 -110 129q-2 4 0 8q39 78 110 130v163q0 9 9 9
h460v50h-597q-13 0 -22.5 -9.5t-9.5 -22.5v-648q0 -13 9.5 -22.5t22.5 -9.5h830q13 0 22.5 9.5t9.5 22.5v648q0 13 -9.5 22.5t-22.5 9.5zM109 595h72q9 0 9 -9t-9 -9h-72q-9 0 -9 9t9 9zM109 548h72q9 0 9 -9t-9 -9h-72q-9 0 -9 9t9 9zM109 501h72q9 0 9 -9t-9 -9h-72
q-9 0 -9 9t9 9zM181 40h-72q-9 0 -9 9t9 9h72q9 0 9 -9t-9 -9zM181 87h-72q-9 0 -9 9t9 9h72q9 0 9 -9t-9 -9zM181 134h-72q-9 0 -9 9t9 9h72q9 0 9 -9t-9 -9zM448 382q-26 0 -44.5 -19t-18.5 -45t18.5 -44.5t44.5 -18.5t44.5 18.5t18.5 44.5t-18.5 45t-44.5 19zM448 505
q-103 0 -190 -53q-81 -51 -124 -134q43 -83 124 -133q87 -53 190 -53t189 53q82 50 125 133q-43 83 -125 134q-86 53 -189 53zM447.5 162q-64.5 0 -110 45.5t-45.5 110.5t45.5 111t110 46t110 -46t45.5 -111t-45.5 -110.5t-110 -45.5zM647 467q24 -15 47 -34v173h-451v-142
q1 0 3 1.5t3 1.5q90 56 198.5 56t199.5 -56zM447.5 456q-56.5 0 -96.5 -40.5t-40 -97.5t40 -97.5t96.5 -40.5t97 40.5t40.5 97.5t-40.5 97.5t-97 40.5zM447.5 236q-33.5 0 -57.5 24t-24 58t24 58t57.5 24t57.5 -24t24 -58t-24 -58t-57.5 -24z" />
    <glyph glyph-name="compete" unicode="&#xe60b;" 
d="M318 24h50v208h-50v-208zM388 232v-208h258q35 0 63.5 11.5t46 30t29.5 40.5t17.5 44.5t8.5 40.5t3 30v11h-426zM158 123v1q0 6 -4.5 10.5t-10.5 4.5h-61q-7 0 -11.5 -4.5t-4.5 -10.5v-1q0 -6 4.5 -10.5t11.5 -4.5h61q6 0 10.5 4.5t4.5 10.5zM126 92h-37q-7 0 -11.5 -4.5
t-4.5 -10.5v-1q0 -6 4.5 -10.5t11.5 -4.5h37q7 0 11.5 4.5t4.5 10.5v1q0 6 -4.5 10.5t-11.5 4.5zM239 342v14q0 10 -8 15.5t-18 1.5v0q-12 -5 -12 -18v-28q0 -27 18 -48v-1q12 -14 4 -30t-26 -16h-30q4 -7 4 -15v-1q0 -13 -9 -22q12 -9 12 -24v0q0 -14 -11 -23
q11 -10 11 -23v-1q0 -22 -22 -29q6 -8 6 -17v-1q0 -8 -5 -15h149v176l-43 53q-20 22 -20 52zM454 636h-175q-13 0 -21.5 -8.5t-8.5 -21.5v-48h149q21 44 56 78zM89 201h51q7 0 11.5 4.5t4.5 10.5v1q0 6 -4.5 10.5t-11.5 4.5h-51q-7 0 -11.5 -4.5t-4.5 -10.5v-1
q0 -6 4.5 -10.5t11.5 -4.5zM82 154h61q6 0 10.5 4.5t4.5 11.5v0q0 7 -4.5 11.5t-10.5 4.5h-61q-7 0 -11.5 -4.5t-4.5 -11.5v0q0 -7 4.5 -11.5t11.5 -4.5zM843 440q0 74 -51 129l-11 11q-56 51 -132 51q-80 0 -136.5 -56t-56.5 -135t56.5 -135t137 -56t137 56t56.5 135z
M649 301q-58 0 -99 41t-41 98t41 97.5t99 40.5q54 0 94 -35l11 -11q36 -39 36 -92q0 -57 -41.5 -98t-99.5 -41zM371 440q0 53 20 102h-142v-167q6 -9 6 -19v-14q0 -24 16 -43l43 -51h136q-79 80 -79 192zM743 521l-11 11q-36 31 -83 31q-51 0 -87.5 -36t-36.5 -87t36.5 -87
t88 -36t88 36t36.5 87q0 46 -31 81zM649.5 370q-29.5 0 -50.5 20.5t-21 49.5t21 49.5t50 20.5q25 0 45 -15l11 -11q16 -19 16 -44q0 -29 -21 -49.5t-50.5 -20.5zM683 484q-15 11 -34 11q-22 0 -38.5 -16t-16.5 -39t16.5 -39t39 -16t39 16t16.5 39q0 18 -11 33zM856 600
q-5 6 -16 17t-20 19l-8 8q-72 55 -163 55q-108 0 -185 -76t-77 -183q0 -55 22.5 -105t63.5 -87h99q-58 23 -95 75t-37 117q0 85 61.5 146t147.5 61q82 0 143 -56l11 -11q56 -59 56 -140q0 -65 -37 -117t-95 -75h99q41 37 63.5 87t22.5 105q0 90 -56 160zM307 616
q-9 0 -15.5 -6.5t-6.5 -16t6.5 -16t15.5 -6.5t15.5 6.5t6.5 16t-6.5 16t-15.5 6.5zM307 585q-9 0 -9 9t9 9t9 -9t-9 -9zM358 616q-9 0 -15.5 -6.5t-6.5 -16t6.5 -16t15.5 -6.5t15.5 6.5t6.5 16t-6.5 16t-15.5 6.5zM358 585q-9 0 -9 9t9 9t9 -9t-9 -9zM770 561
q-13 0 -22.5 -9t-9.5 -22.5t9.5 -23t22.5 -9.5t22.5 9.5t9.5 23t-9.5 22.5t-22.5 9zM493 363q-10 0 -17 -7t-7 -17t7 -17t17 -7t17.5 7t7.5 17t-7.5 17t-17.5 7zM590 352q-10 0 -17 -7t-7 -17t7 -17t17 -7t17 7t7 17t-7 17t-17 7zM950 449h-293v287q0 3 -2.5 5.5t-5.5 2.5
q-8 0 -8 -8v-287h-292q-9 0 -9 -8t9 -8h292v-180q0 -8 8 -8t8 8v180h293q8 0 8 8t-8 8z" />
    <glyph glyph-name="database" unicode="&#xe60c;" 
d="M282 196h456v349h-67h-1q-33 2 -58 23t-31 52h-372v-244h40q13 0 23 -9.5t10 -23.5v-147zM66 81q0 -7 5 -12t13 -5h165q7 0 12 5t5 12v22h-200v-22zM249 361h-165q-8 0 -13 -5.5t-5 -12.5v-225h200v225q0 7 -5 12.5t-12 5.5zM672 560h1h65v60h-141q6 -25 27 -42t48 -18z
M755 658h-562q-9 0 -15.5 -6.5t-6.5 -15.5v-260h23v252q0 7 7 7h545q8 0 8 -7v-440q0 -7 -8 -7h-464v-23h473q9 0 15.5 6.5t6.5 15.5v456q0 9 -6.5 15.5t-15.5 6.5zM904 672q-4 0 -9 -1q-3 0 -5.5 2t-3.5 5q-4 39 -28.5 62t-56.5 30q-35 7 -67 -6.5t-50 -44.5q-2 -4 -7 -4
q-23 1 -42.5 -10t-30.5 -31h151q15 0 26 -11t11 -27v-76h112q24 0 41 16.5t17 39.5t-17 39.5t-41 16.5zM585 11h-64v131h-94v-131h-64q-8 0 -8 -7.5t8 -7.5h222q8 0 8 7.5t-8 7.5zM568 424h-36v80q0 24 -17 40.5t-41 16.5h-1q-24 0 -40.5 -16.5t-16.5 -40.5v-80h-36
q-8 0 -8 -7v-146q0 -8 8 -8h188q8 0 8 8v146q0 7 -8 7zM429 502q1 21 12.5 31t28.5 10q18 2 30 -7t14 -18l3 -10v-81h-88v75zM560 279h-173v130h173v-130zM166 219q-8 0 -8 -7v-19q0 -7 8 -7t8 7v19q0 7 -8 7zM473.5 361q-7.5 0 -7.5 -8v-36q0 -8 7.5 -8t7.5 8v36
q0 8 -7.5 8zM436 355.5q6 -4.5 11 1.5q10 14 27 14t27 -14q2 -3 6 -3q2 0 4 1q7 5 2 11q-14 21 -39 21t-40 -21q-4 -6 2 -10.5zM213 246h-14v36q0 14 -9.5 23.5t-23.5 9.5v0q-14 0 -23.5 -9.5t-9.5 -23.5v-36h-14q-8 0 -8 -7v-73q0 -8 8 -8h94q8 0 8 8v73q0 7 -8 7zM149 282
q0 8 5 13t12 5v0q8 0 13 -5t5 -13v-36h-35v36zM205 174h-78v57h64v0h14v-57z" />
    <glyph glyph-name="dame" unicode="&#xe612;" 
d="M806 757v74h-259v-74h-74v74h-259v-74h-148v-814h888v814h-148zM621 757h111v-111h-111v111zM288 757h111v-111h-111v111zM843 54h-666v592h37v-74h259v74h74v-74h259v74h37v-592zM695 313h-148v148q0 14 -9.5 23t-18.5 12l-9 2h-37q-9 0 -18.5 -9t-14.5 -19l-4 -9v-185
q0 -22 7.5 -37.5t18.5 -22.5t22 -10.5t18 -3.5h8h185q13 0 22.5 9.5t11.5 18.5l3 9v37q0 11 -9 20.5t-19 12.5z" />
    <glyph glyph-name="date" unicode="&#xe613;" 
d="M326 498h-75v-74h75v74zM326 201h-75v-74h75v74zM549 498h-75v-74h75v74zM772 201h-75v-74h75v74zM846 721v74h-223v-74h-223v74h-223v-74h-111v-743h891v743h-111zM251 721h75v-74h-75v74zM363 52h-149v223h149v-223zM363 350h-149v223h149v-223zM586 52h-149v223h149
v-223zM586 350h-149v223h149v-223zM697 721h75v-74h-75v74zM809 52h-149v223h149v-223zM809 350h-149v223h149v-223zM772 498h-75v-74h75v74zM549 201h-75v-74h75v74z" />
    <glyph glyph-name="decimal" unicode="&#xe614;" 
d="M616 832q-93 0 -172 -59.5t-125 -162.5t-46 -224t46 -224t125 -162.5t172 -59.5t172.5 59.5t125 162.5t45.5 224t-45.5 224t-125 162.5t-172.5 59.5zM616.5 77q-99.5 0 -170 90.5t-70.5 218.5t70.5 218.5t170 90.5t170 -90.5t70.5 -218.5t-70.5 -218.5t-170 -90.5z
M170 146q-43 0 -73 -30.5t-30 -73t30 -72.5t73 -30t73 30t30 72.5t-30 73t-73 30.5z" />
    <glyph glyph-name="emu" unicode="&#xe615;" 
d="M481 472q-30 5 -59 12t-51 19t-36.5 28.5t-14.5 39.5q0 52 42 73.5t119 21.5v-194zM136 255q-1 -55 24 -96.5t70.5 -70.5t109.5 -44.5t141 -16.5l-4 -93h101q-11 65 -11 92q22 1 38.5 2.5t23.5 3t23 5.5t23 6q65 16 107 41q46 27 72 67t26 95q0 52 -28.5 88t-75.5 60.5
t-108 39.5q-53 14 -90 20v208h15.5t12.5 -0.5t9.5 -1t8 -2l6 -2t6 -3.5t5.5 -3.5t6.5 -4.5t6.5 -5q35 -26 38 -76h163q0 48 -25 84t-67 59t-99 35q-14 3 -38 13.5t-48 10.5v70l-97 -7v-75q-64 0 -122.5 -13t-103.5 -36.5t-71 -59t-26 -82.5q0 -53 28.5 -89t74.5 -60t104 -39
t116 -25v-235q-98 2 -141 38.5t-41 100.5zM578 350q11 -2 14.5 -11t14.5 -12q31 -7 56 -20t40 -31.5t15 -45.5q0 -58 -49 -85q-9 -4 -25 -15.5t-29 -16t-37 -6.5v243z" />
    <glyph glyph-name="id" unicode="&#xe616;" 
d="M847 831h-669q-47 0 -79.5 -32.5t-32.5 -79.5v-669q0 -46 32.5 -79t79.5 -33h669q47 0 79.5 32.5t32.5 79.5v669q0 47 -32.5 79.5t-79.5 32.5zM326 124h-111v372h111v-372zM326 571h-111v111h111v-111zM810 459v-112q0 -104 -73 -163.5t-187 -59.5h-149v558h149
q116 0 189 -57.5t71 -165.5zM558 575l-46 -4v-335l46 -4q57 0 98.5 31t41.5 84v112q0 36 -11 60t-32.5 35.5t-44 16t-52.5 4.5z" />
    <glyph glyph-name="long" unicode="&#xe617;" 
d="M517 723q53 0 104 -17q4 -1 17.5 22t23.5 46.5t5 25.5q-74 27 -154 27q-6 0 -7.5 -26t2 -52t9.5 -26zM854 386q0 -92 -45 -169.5t-123 -122.5t-169.5 -45t-169 45t-123 122.5t-45.5 169.5q0 121 77 214t194 116q4 5 3 28.5t-7.5 50t-12.5 25.5q-157 -28 -261 -151.5
t-104 -286.5q0 -90 35.5 -172.5t95 -142t142 -95t173 -35.5t173 35.5t142 95t94.5 142t35 172.5q0 21 -10.5 33.5t-26 14.5t-31 -1.5t-26 -15.5t-10.5 -27zM624 604.5q0 -13.5 9.5 -22.5t18.5 -12l10 -2h148q3 0 8 0.5t18 5t22.5 12t17.5 22t8 34.5v148q0 16 -11 26.5
t-26 10.5t-26 -10.5t-11 -26.5l-39 -45q-15 11 -32 21q-7 4 -27 -23t-27 -49q-9 -10 -15 -23t-7 -21l-1 -8q-5 -1 -11 -3t-16.5 -11.5t-10.5 -23zM439 531v-186q0 -16 18.5 -34.5t37.5 -29.5l18 -10l111 -37q3 -1 6.5 -2t13.5 -1.5t19 2.5t19 12.5t17 25.5q8 28 0 44.5
t-23 23.5l-14 6q-6 8 -112 37v149q0 15 -20.5 26t-53.5 11q-15 0 -26 -11t-11 -26z" />
    <glyph glyph-name="map" unicode="&#xe618;" 
d="M510.5 830q-101.5 0 -187.5 -51t-136 -138t-50 -190q0 -126 73 -226q30 -42 106 -115.5t133 -123.5t61 -52q27 22 68 58t123.5 115.5t112.5 122.5q70 99 70 221q0 103 -50 190t-136 138t-187.5 51zM510 255q-81 0 -138 58t-57 140t57 139.5t138 57.5t138.5 -57.5
t57.5 -139.5t-57.5 -140t-138.5 -58z" />
    <glyph glyph-name="number" unicode="&#xe619;" 
d="M757 830h-32h-47h-66h-99q-27 0 -94 -0.5t-122.5 -0.5t-93.5 1q-32 -2 -55 -23q-13 -10 -13 -30q0 -10 3 -20q2 -12 8 -23q-12 -32 -21 -66q-1 -7 -13 -103h91q2 12 4.5 28.5t3.5 23t4 16t7.5 16.5t12.5 16q64 77 278 77h144q-42 -65 -293.5 -360.5t-296.5 -355.5v-89
q25 0 111.5 2.5t235.5 2.5t380 -5q8 0 19 1t19 2.5t9 1.5q50 0 69.5 10.5t19.5 34.5q0 11 -5 25t-16 32q20 37 32 78q13 40 19 84h-63q-21 -107 -85 -146q-34 -20 -94 -29.5t-178 -9.5h-197q114 175 312 435.5t238 285.5v88q-10 -1 -65 0t-71 0z" />
    <glyph glyph-name="percents" unicode="&#xe61a;" 
d="M78.5 506.5q15.5 -40.5 44.5 -71.5q28 -31 64 -47.5t76 -16.5t76.5 16.5t63.5 47.5q29 31 44 71q15 38 16 84q1 50 -10 87q-2 7 -5.5 14t-6.5 11.5t-9 12t-8.5 10.5t-10.5 11l-10 10q-27 31 -63.5 48t-76.5 17t-76 -16.5t-64 -48.5q-29 -31 -44.5 -71t-15.5 -85
q0 -43 15.5 -83.5zM196 664q27 30 67 30t67 -30t27 -74t-27 -73.5t-67 -29.5t-67 29.5t-27 73.5t27 74zM253 -46h91l430 857h-91zM693.5 249q27.5 30 67.5 30q39 0 66.5 -30t27.5 -73q0 -44 -27.5 -74t-66.5 -30q-40 0 -67.5 30t-27.5 74q0 43 27.5 73zM576 91
q15 -40 43 -71t64.5 -47.5t77.5 -16.5q40 0 76.5 16.5t64.5 47.5q29 31 43.5 71t14.5 85q0 44 -15 84t-43 72q-28 30 -64.5 47t-76.5 17q-41 0 -77.5 -17t-64.5 -47q-28 -32 -43 -72t-15 -84q0 -45 15 -85z" />
    <glyph glyph-name="sex" unicode="&#xe61b;" 
d="M960 576q0 100 -65.5 170t-157.5 70q-62 0 -121 -32t-97.5 -88t-38.5 -120q0 -82 61 -148t144 -85v-179l-102 3v-69h102v-137h69v137h103v68l-103 -1v173q87 7 146.5 75.5t59.5 162.5zM720 440q-57 0 -97 40t-40 96.5t40 96.5t97 40t97 -40t40 -96.5t-40 -96.5t-97 -40z
M342 437v242l103 -114v94l-137 157l-137 -157v-94l103 114v-242q-88 -12 -147 -79.5t-59 -157.5q0 -99 70.5 -169t170 -70t169.5 70t70 169q0 90 -59 157.5t-147 79.5zM308 64q-57 0 -97 40t-40 96.5t40 96.5t97 40t97 -40t40 -96.5t-40 -96.5t-97 -40z" />
    <glyph glyph-name="t" unicode="&#xe61c;" 
d="M113 786q3 -21 10 -42q-13 -42 -22 -85t-13 -84h51q16 88 54.5 124t114.5 36h86q3 -48 5 -96q1 -49 1 -131v-256q0 -112 -4 -156q-5 -43 -16 -65q-12 -23 -41 -36t-86 -19v-41q57 0 122 9q63 8 138 24q75 -15 139 -23t121 -10v41q-53 7 -81.5 20t-40.5 35q-14 24 -19 74
t-5 185v158q0 105 1.5 167t5.5 120h85q80 -8 116.5 -42.5t52.5 -117.5h51q-4 41 -13 84t-22 85q7 23 11.5 44.5t4.5 41.5h-46q-1 -16 -21.5 -22t-77.5 -6q-13 0 -46 1h-54h-311h-59q-34 -1 -48 -1q-61 0 -82 6t-22 22l-45 -1q1 -22 5 -43v0z" />
    <glyph glyph-name="time" unicode="&#xe61d;" 
d="M510 833q-91 0 -173.5 -35t-142.5 -95t-95.5 -142.5t-35.5 -173.5t35.5 -173.5t95.5 -142.5t142.5 -95.5t173.5 -35.5t173.5 35.5t142.5 95.5t95 142.5t35 173.5t-35 173.5t-95 142.5t-142.5 95t-173.5 35zM750 318q-2 -6 -10 -12t-17.5 -10t-19 -7t-15.5 -4l-6 -1h-172
q-3 0 -7.5 0.5t-16.5 4t-21 10t-16.5 20.5t-7.5 34v240l10 15t24 27.5t35 26.5q4 2 9 2t12.5 -1t12.5 -1q12 0 12 -17.5t-6 -34.5l-6 -17v-206h138q2 -1 7 -2t16.5 -4t20.5 -7t16.5 -9.5t7.5 -11.5q0 -4 0.5 -12t0.5 -14t-1 -9z" />
    <glyph glyph-name="dataml" unicode="&#xe602;" 
d="M75 831v-895h596v733l-190 162h-406zM617 -9h-488v786h298v-163h190v-623zM481 668v86l114 -86h-114zM753 831v-651l81 -244h27l81 244v651h-189zM888 208l-27 -136h-27l-27 136v433h81v-433zM888 696h-81v81h81v-81zM346 668h-163v-54h163v54zM183 479h380v54h-380v-54z
M183 343h380v54h-380v-54zM183 208h380v54h-380v-54zM183 72h380v54h-380v-54z" />
    <glyph glyph-name="factory" unicode="&#xe604;" 
d="M960 6l-77 -3v447h-184v-447h-53v737h-184l-1 -734l-51 -3v316h-185v-316h-105v105h53v53h-53v79h53v52h-53v79h53v53h-53v105h53v53h-53v79h53v52h-53v106l-53 -2v-867h893v56v0zM752 398h79v-395h-79v395zM515 687h79v-684l-78 3zM278 266h79v-263h-79v263z" />
    <glyph glyph-name="owner" unicode="&#xe61e;" 
d="M697 348q-9 8 -20.5 8t-19.5 -8l-22 -21l-44 43l98 96h44q82 0 124.5 49t42.5 143q0 16 -13 24t-27 1l-94 -46l-27 27l47 92q7 13 -1.5 26t-23.5 13q-96 0 -146 -41.5t-50 -122.5v-44l-98 -96l-156 154l23 21q9 10 7.5 23t-13.5 20l-139 83q-19 11 -35 -5l-27 -27
q-16 -15 -5 -34l84 -137q7 -11 21 -13h3q12 0 20 8l22 22l156 -154l-329 -323q-5 -5 -7 -11l-28 -82q-6 -16 7 -28l28 -28q8 -8 19 -8q5 0 9 2l84 27q6 2 11 7l329 323l45 -43l-23 -22q-8 -8 -8 -19.5t8 -19.5l252 -247q8 -8 19.5 -8t19.5 8l84 83q8 8 8 19t-8 19zM236 648
l-50 81l83 -49zM187 51l-61 -20l-4 4l21 60l470 462q8 8 8 19v55q0 42 19 70t74 36l-34 -66q-9 -18 5 -32l56 -55q14 -14 32 -5l68 33q-9 -54 -37 -72.5t-71 -18.5h-56q-12 0 -20 -8zM844 39l-211 208l44 43l212 -208l-45 -43v0z" />
    <glyph glyph-name="tel" unicode="&#xe61f;" 
d="M234 778l125 -168l-31 -39l-145 179zM920 101l-173 -116q-329 79 -555 335q-86 98 -125 179l53 204l25 18l152 -186l-31 -79l401 -291l44 58l218 -92zM950 176l-222 85l31 49l200 -84z" />
    <glyph glyph-name="code" unicode="&#xe620;" 
d="M216 693l-148 -111v-37l148 -111v259zM734 397v407h-444v-407l222 -111zM512 693h148v-74h-148v74zM364 545h296v-74h-296v74zM68 471v-518h888v518l-444 -259zM808 693v-259l148 111v37z" />
    <glyph glyph-name="mail" unicode="&#xe621;" 
d="M961 718l-448 -398l-448 398h896zM64 45l1 560l448 -386l448 386v-560h-897z" />
    <glyph glyph-name="e" unicode="&#xe622;" 
d="M899 799q-60 22 -132 7t-196 -83q-47 0 -85.5 -2.5t-83.5 -11.5t-81 -24t-72 -41t-62 -61.5t-46 -87t-30 -114.5q37 47 68 81.5t71.5 71.5t86 63.5t93.5 40.5q-43 -35 -94 -86.5t-105 -119.5t-94.5 -136.5t-59.5 -140t-3 -126.5q12 -45 53 -62t91.5 -10t101.5 23t86 33
t43 25q1 0 28.5 -0.5t40 0t45 2.5t52.5 6.5t53.5 13.5t57.5 21t55 31t54.5 43t48 57.5t43.5 72.5h-281q-2 -3 -4.5 -9t-13.5 -20.5t-23.5 -26t-34.5 -20.5t-46 -9q-61 0 -94.5 44t-27.5 89h534v76q-1 5 -2.5 13.5t-10 34t-20 50t-33 56t-48.5 57t-68 49t-90 35.5
q45 30 93.5 47t96 14t73.5 -32q11 -14 14.5 -41.5t1 -49t-6.5 -23.5q10 6 17 31.5t7 55t-15.5 57t-45.5 36.5zM411 48q-41 -39 -123 -54t-130 16q-27 20 -28.5 67.5t12.5 86.5t25 45l11.5 -14t34 -36t50.5 -44.5t68 -41.5t80 -25zM392 447q0 8 7 25t20 38t38.5 36t56.5 15
q34 0 61.5 -11.5t41.5 -28.5t23.5 -33.5t11.5 -28.5l3 -12h-263z" />
    <glyph glyph-name="edit" unicode="&#xe623;" 
d="M103 -60q10 0 21 5l204 91q30 13 54 37l555 556q17 17 17 40.5t-17 40.5l-101 101q-17 17 -40.5 17t-39.5 -17l-570 -570q-24 -24 -37 -56l-77 -188q-10 -24 1 -41q11 -16 30 -16zM342 113v0l-102 102l471 471l101 -102zM796 771l101 -102l-45 -45l-101 102zM202 164
q1 3 3 7l88 -89l-153 -68z" />
    <glyph glyph-name="more" unicode="&#xe624;" 
d="M184 504q-49 0 -84 -35t-35 -84.5t35 -85t84 -35.5t84 35.5t35 85t-35 84.5t-84 35zM510.5 504q-49.5 0 -84 -35t-34.5 -84.5t34.5 -85t84 -35.5t84 35.5t34.5 85t-34.5 84.5t-84 35zM837 504q-49 0 -84 -35t-35 -84.5t35 -85t84 -35.5t84 35.5t35 85t-35 84.5t-84 35z
" />
    <glyph glyph-name="source" unicode="&#xe625;" 
d="M859 708l-103 102q-5 5 -9.5 8.5t-10.5 5.5t-9 3.5t-11 2t-10.5 0.5h-12.5h-13h-197q-14 0 -28.5 -3.5t-32.5 -13t-29 -31.5t-11 -54v-56h-138q-13 0 -27.5 -3.5t-32.5 -13t-29 -31.5t-11 -54v-531q0 -100 98 -100h358q28 0 48.5 11.5t31 28.5t15.5 32.5t5 27.5v118h79
q27 0 48 11.5t31.5 28.5t15.5 32.5t5 27.5v375v13v12.5t-1 10.5t-2 11.5t-3 9t-5.5 10t-8.5 9.5zM720 774l102 -102h-43q-59 0 -59 59v43zM660 37q0 -19 -7 -32t-17.5 -18t-18.5 -6.5t-15 -1.5h-359q-13 0 -21 1.5t-18 6.5t-15.5 17.5t-5.5 32.5v534q0 26 14.5 43.5
t44.5 17.5h219v-99q0 -14 0.5 -21t5.5 -24.5t14.5 -27t29.5 -18t49 -8.5h100v-397zM501 532v84l143 -142h-83q-60 0 -60 58zM839 255q0 -19 -7 -32t-18 -18t-18.5 -6.5t-14.5 -1.5h-81v237v13v12.5t-0.5 10.5t-2 11t-3.5 9t-5.5 10.5t-8.5 9.5l-143 142q-4 5 -8.5 8.5
t-10.5 5.5t-9.5 3.5t-11 2t-10.5 0.5h-13h-13h-39v57q0 27 14 44.5t45 16.5h199v-59q0 -14 0.5 -21t5.5 -24t14 -27t29.5 -18.5t48.5 -8.5h61v-377zM263 416h159q8 0 14 6t6 14t-6 14t-14 6h-159q-8 0 -14 -6t-6 -14t6 -14t14 -6zM263 317h238q8 0 14 5.5t6 14t-6 14
t-14 5.5h-238q-8 0 -14 -5.5t-6 -14t6 -14t14 -5.5zM243 237.5q0 -8.5 6 -14.5t14 -6h318q8 0 13.5 6t5.5 14.5t-5.5 14t-13.5 5.5h-318q-8 0 -14 -5.5t-6 -14zM402 158h-139q-8 0 -14 -6t-6 -14t6 -14t14 -6h139q8 0 14 6t6 14t-6 14t-14 6z" />
    <glyph glyph-name="copy" unicode="&#xe628;" 
d="M290 646h278q8 0 13 5t5 13t-5 13.5t-13 5.5h-278q-8 0 -13 -5.5t-5 -13.5t5 -13t13 -5zM745 627h-9h9zM588 831h-19h19zM745 627q9 0 -1 -2q-26 -2 -28 2v73q0 44 -7.5 70.5t-25.5 39.5t-38.5 16.5t-56.5 4.5q1 0 -51.5 -0.5t-126 -1t-121.5 -0.5q-25 0 -39 -0.5t-32 -3
t-28 -8t-20.5 -14.5t-15.5 -23t-8.5 -34t-3.5 -47v-461h111q26 0 39.5 -18.5t15.5 -37.5l1 -18v-85v-7q0 -27 5 -48t12 -35t19.5 -23t22.5 -13.5t26.5 -7t25.5 -2.5h26h12q59 0 128.5 0.5t111 0.5t38.5 0h17h19.5t19 1t20.5 3.5t18 7t17.5 10.5t13.5 16t12 23t7 30.5t3 37.5
v424q0 35 -7.5 59.5t-18 38t-30 21t-36.5 9t-46 2.5zM235 275h-56v426q-1 4 -2 10t2 22t12.5 28.5t35 22.5t63.5 10h315q1 -2 8 -0.5t18 -2.5t22 -10t18.5 -22t7.5 -39v-519v-8t-3 -18t-10 -22.5t-23 -17.5t-38 -8h-260v55v10.5t-5.5 22t-16 27.5t-33.5 22.5t-55 10.5z
M772 -21h-371q-2 0 -6 1.5t-13.5 8.5t-16.5 16t-13 26.5t-6 39.5v1q-2 1 -2 5.5t1 8.5v4h18.5t42 0.5t56.5 0.5t53 0.5t41 0.5t11 0h17.5h20t19.5 1t20 3t18.5 6.5t17.5 11t14 16.5t12 22.5t7 30.5t3 39v368q2 3 14.5 3t26.5 -2l15 -1q0 -1 7 0.5t18.5 -2.5t22 -10
t18.5 -22.5t8 -39.5v-463v-8t-3.5 -18t-10 -22.5t-22.5 -17.5t-38 -8zM290 460h278q8 0 13 5.5t5 13t-5 13t-13 5.5h-278q-8 0 -13 -5.5t-5 -13t5 -13t13 -5.5zM586 386.5q0 7.5 -5 13t-13 5.5h-278q-4 0 -9 2t-7 2t-2 -4q0 -10 5.5 -23.5t12.5 -13.5h278q8 0 13 5.5t5 13z
M290 553h278q8 0 13 5.5t5 13t-5 13t-13 5.5h-278q-8 0 -13 -5.5t-5 -13t5 -13t13 -5.5z" />
    <glyph glyph-name="next" unicode="&#xe629;" 
d="M708 826h-24l-25 -24v-25l124 -99h-297q-6 -1 -16 -2.5t-40 -11.5t-59 -24t-66 -41.5t-67 -62t-57 -87.5t-41 -117v-123q1 -8 3.5 -20.5t13.5 -49t26 -68.5t43 -70.5t63 -63.5h24l25 25v25q-5 2 -14 6.5t-32 23.5t-42 42t-37 63.5t-23 86.5v123q1 6 4 15t15 36.5t27 53
t40 58t53.5 58t70 47t86.5 29.5h297l-124 -124v-24l25 -25h24l173 198z" />
    <glyph glyph-name="preview" unicode="&#xe62a;" 
d="M219 249h585v438h-585v-438zM255 651h512v-366h-512v366zM804 760h-220q-2 1 -2 5t1 9l1 4q0 3 -1 6.5t-6 13t-12.5 16.5t-21.5 13t-32 6t-32 -5.5t-21.5 -13.5t-12 -16t-6.5 -14l-1 -6q7 -18 0 -18h-219q-38 0 -55.5 -17.5t-17.5 -55.5v-438q0 -38 17.5 -56t55.5 -18
h274v-127l-110 -74v-18l19 -18h18l73 55v-55h37v55l73 -55h18l18 18v18l-109 74l-1 127h275q37 0 55 18t18 56v438q0 38 -18 55.5t-55 17.5zM475 778q10 19 36 19q12 0 21 -4.5t12 -9.5l3 -5q7 -18 0 -18h-72q-3 0 -3 4.5t2 9.5zM840 230l-18 -18h-621l-19 18v475l19 19h621
l18 -19v-475zM584 523h73l-127 -110h-19l-73 73l-128 -128v-18l19 -18h18l91 109l73 -73h19l164 146v-73h37v128h-147v-36z" />
    <glyph glyph-name="return" unicode="&#xe62b;" 
d="M316 831h25l25 -25v-25l-124 -98h297q5 -1 15.5 -3t40.5 -12t58.5 -24t66 -41.5t67 -61.5t56.5 -87.5t41 -116.5v-124q-1 -7 -3.5 -20t-13.5 -49t-26 -68.5t-43 -70.5t-62 -63h-25l-24 24v25q5 2 14 7t32 24t42 42t36.5 63t23.5 86v124q-2 5 -5 14.5t-15 37t-26.5 53
t-39.5 58t-54 57.5t-70 46.5t-86 29.5h-297l124 -123v-25l-25 -25h-25l-173 198z" />
    <glyph glyph-name="save" unicode="&#xe62c;" 
d="M698 516h-372v-37h372v37zM698 609h-372v-37h372v37zM773 832h-521q-38 0 -65.5 -27t-27.5 -66v-762q0 -16 11 -26.5t26 -10.5h632q16 0 27 10.5t11 26.5v762q0 39 -27.5 66t-65.5 27zM828 -23h-632v781q1 4 3 9.5t11 16t23 11.5h558q4 -2 10.5 -5t16.5 -13t10 -19v-781z
M754 758h-483q-15 0 -24 -9.5t-11 -18.5l-3 -9v-633q0 -17 9.5 -26t19 -10.5t9.5 -0.5h93v168h297v-168h93q15 0 24.5 9.5t11.5 18.5l1 9v633q0 12 -9 21.5t-19 12.5zM754 88h-56v168h-372v-168h-55v633h483v-633zM698 423h-372v-37h372v37z" />
    <glyph glyph-name="heart" unicode="&#xe62e;" 
d="M516 664q-15 34 -42.5 64.5t-61.5 53t-73 34t-77 11t-73 -18.5t-61.5 -51t-42.5 -91.5t-17 -135.5q0 -59 32.5 -127t81 -125.5t106 -115.5t107.5 -100t84.5 -75.5t37.5 -45.5q2 13 36.5 46.5t84 76.5t107 101t106.5 116t81 125t32 126q0 69 -13.5 124t-36.5 89.5
t-53.5 57t-64.5 29t-69 4t-68.5 -18t-61.5 -37t-49.5 -52t-31.5 -64.5z" />
    <glyph glyph-name="customchart" unicode="&#xe62f;" 
d="M302 220h71v423h-71v-423zM184 220h71v306h-71v-306zM727 408q-63 0 -118 -31v196h-71v-259q-47 -62 -47 -141q0 -56 25.5 -105.5t69.5 -82.5h-473v800h591v-377h47v424h-685v-894h709v5q81 16 135 81t54 149q0 98 -69.5 166.5t-167.5 68.5zM727.5 -15q-78.5 0 -134 55
t-55.5 133t55.5 133t134 55t133.5 -55t55 -133t-55 -133t-133.5 -55zM420 220h71v282h-71v-282zM751 291h-47v-94h-95v-47h95v-94h47v94h95v47h-95v94z" />
    <glyph glyph-name="customtext" unicode="&#xe630;" 
d="M417 242h-214q-10 0 -17 -7t-7 -17t7 -16.5t17 -6.5h214q10 0 17 6.5t7 16.5t-7 17t-17 7zM203 548h167q9 0 16 7t7 17t-7 17t-16 7h-167q-10 0 -17 -7t-7 -17t7 -17t17 -7zM417 360h-214q-10 0 -17 -7t-7 -17t7 -16.5t17 -6.5h214q10 0 17 6.5t7 16.5t-7 17t-17 7z
M417 124h-214q-10 0 -17 -7t-7 -17t7 -16.5t17 -6.5h214q10 0 17 6.5t7 16.5t-7 17t-17 7zM727 407q-99 0 -168.5 -69t-69.5 -167q0 -57 25.5 -106.5t69.5 -82.5h-477v802h429v-212h167v-165h48v198l-181 227h-510v-897h715v5q82 16 136 81t54 150q0 98 -69.5 167t-168.5 69
zM584 751l86 -132h-86v132zM727 -18q-79 0 -135 55.5t-56 133.5t56 133.5t135 55.5t135 -55.5t56 -133.5t-56 -133.5t-135 -55.5zM536 478h-333q-10 0 -17 -7t-7 -17t7 -16.5t17 -6.5h333q10 0 17 6.5t7 16.5t-7 17t-17 7zM751 289h-48v-94h-95v-48h95v-94h48v94h95v48h-95
v94z" />
    <glyph glyph-name="arrdown" unicode="&#xe631;" 
d="M187 616l325 -290l324 290q2 2 6 5t16.5 8.5t24.5 7.5t29 -3t33 -19q12 -14 12 -33.5t-6 -37.5l-6 -17l-433 -398l-433 398q-1 2 -3 6.5t-5 17t-4 23t1.5 22.5t9.5 19q18 17 35.5 23t30 3t22.5 -8.5t16 -11.5z" />
    <glyph glyph-name="diamore" unicode="&#xe638;" 
d="M110 736h802q18 0 31 13.5t13 32.5t-13 33t-31 14h-802q-18 0 -31 -14t-13 -33t13 -32.5t31 -13.5zM912 427h-802q-18 0 -31 -14t-13 -33t13 -32.5t31 -13.5h802q18 0 31 13.5t13 32.5t-13 33t-31 14zM912 25h-802q-18 0 -31 -13.5t-13 -33t13 -33t31 -13.5h802
q18 0 31 13.5t13 33t-13 33t-31 13.5z" />
    <glyph glyph-name="diasearch" unicode="&#xe705;" 
d="M812 463.5q0 101.5 -50.5 187.5t-136.5 136t-187.5 50t-188 -50t-136.5 -136t-50 -187.5t50 -188t136.5 -136.5t188 -50t187.5 50t136.5 136.5t50.5 188zM437 164q-124 0 -211.5 87.5t-87.5 211.5t87.5 212t211.5 88t212 -88t88 -212t-88 -211.5t-212 -87.5zM948 14
l-195 195q-24 -37 -61 -61l195 -196q13 -12 31 -12t30.5 12.5t12.5 30.5t-13 31z" />
    <glyph glyph-name="iconedit" unicode="&#xe706;" 
d="M420 634h-210v-87h210v87zM210 111h240v87h-240v-87zM898 460h-30l-30 -29v145l-329 261h-388q-1 0 -6.5 1t-14.5 -2.5t-18 -8.5t-15 -17.5t-6 -30.5v-784q0 -2 0.5 -6t3.5 -14t8.5 -17.5t18 -14t29.5 -6.5h657q3 1 7 2t14 6t18 10.5t14.5 16.5t6.5 23v232l119 146v29z
M539 721l150 -116h-120q-12 0 -19.5 7.5t-8.5 14.5l-2 7v87zM479 24h-298q-2 1 -8.5 0t-14 6.5t-7.5 22.5v668l30 29h298v-145q1 0 0 -6t2.5 -14.5t8.5 -17t18 -14.5t31 -6h209v-174l-239 -204l-30 -145v0zM748 53q-1 -3 -3 -8t-10 -13t-17 -8h-119l149 145v-116zM838 315
l-239 -204h-30v29l239 204h30v-29zM210 257h359v87h-359v-87zM210 402h479v87h-479v-87z" />
    <glyph glyph-name="iconenlarge" unicode="&#xe708;" 
d="M882 837h-228q-2 0 -5.5 -0.5t-13.5 -4.5t-17.5 -9.5t-13.5 -16.5t-6 -24q0 -22 14 -29t28 -4l14 4h171l-284 -281l57 -57l284 282v-169q-1 -3 -1.5 -6.5t-1 -13.5t1.5 -17.5t9 -14t20 -6.5q14 0 26 7.5t18.5 20t9 18.5t3.5 12v0v225q1 0 2 8.5t-1.5 21t-9.5 25t-27 21
t-49 8.5zM399 331l-255 -254v169q1 3 2 6.5t1 13.5t-2 18t-9 14t-19 6q-15 0 -27 -8t-18 -20t-8.5 -18.5t-3.5 -11.5v0v-225q-1 -3 -2 -9t1.5 -20.5t9.5 -25.5t26.5 -20t48.5 -9h227q2 0 6 1t13.5 4.5t17 9t13.5 16.5t6 24q0 22 -14 29t-28 4l-14 -4h-170l255 253zM939 246
q0 23 -15 40t-42 17q-22 0 -29.5 -14.5t-3.5 -28.5l4 -14v-169q-2 -10 -9 -17t-13 -9l-6 -2h-171q-1 0 -9.5 1t-15 0.5t-14.5 -2.5t-12.5 -9t-4.5 -18q0 -26 14 -40t28 -15l14 -1h199q18 0 32.5 4.5t23 12t15 16.5t9.5 18t4.5 16.5t1.5 12v4.5v197zM86 528q0 -23 15 -39.5
t42 -16.5q22 0 29 14t3 28l-4 14v169q3 10 10 17t13 9l6 2h170q1 0 10 -1t15.5 -0.5t14.5 2.5t12.5 9t4.5 18q0 26 -14 40.5t-28 14.5l-15 1h-199q-24 0 -42 -8.5t-26 -21t-12 -25t-5 -20.5v-9v-197z" />
    <glyph glyph-name="icondownload" unicode="&#xe709;" 
d="M844 -66h-675q-46 0 -79 33t-33 80v678q0 46 33 79t79 33h675q47 0 80 -33t33 -79v-678q0 -47 -33 -80t-80 -33zM872 697q0 23 -16.5 39.5t-39.5 16.5h-618q-24 0 -40.5 -16.5t-16.5 -39.5v-453q0 -23 16.5 -39.5t40.5 -16.5h56q25 0 39 -14t15 -29l2 -14v-56
q0 -24 16.5 -40.5t39.5 -16.5h281q24 0 40.5 16.5t16.5 40.5v56q0 3 1 6.5t4.5 13.5t9.5 17.5t16.5 13.5t24.5 6h56q23 0 39.5 16.5t16.5 39.5v453zM310 357h169v255h84v-255h169l-224 -228z" />
    <glyph glyph-name="iconkeyuan" unicode="&#xe70a;" 
d="M131 471h760q6 0 10.5 4t4.5 10v54q0 6 -4.5 10.5t-10.5 4.5h-760q-6 0 -10.5 -4.5t-4.5 -10.5v-54q0 -6 4.5 -10t10.5 -4zM947 28h-872q-6 0 -10.5 -4.5t-4.5 -10.5v-53q0 -6 4.5 -10.5t10.5 -4.5h872q7 0 11 4.5t4 10.5v53q0 6 -4 10.5t-11 4.5zM526 830l-396 -221h762
zM280 400h-73q-6 0 -10.5 -4t-4.5 -10v-296q0 -6 4.5 -10t10.5 -4h73q6 0 10.5 4t4.5 10v296q0 6 -4.5 10t-10.5 4zM457 400h-73q-6 0 -10.5 -4t-4.5 -10v-296q0 -6 4.5 -10t10.5 -4h73q6 0 10.5 4t4.5 10v296q0 6 -4.5 10t-10.5 4zM644 400h-73q-6 0 -10.5 -4t-4.5 -10
v-296q0 -6 4.5 -10t10.5 -4h73q6 0 10.5 4t4.5 10v296q0 6 -4.5 10t-10.5 4zM821 400h-73q-6 0 -10.5 -4t-4.5 -10v-296q0 -6 4.5 -10t10.5 -4h73q6 0 10.5 4t4.5 10v296q0 6 -4.5 10t-10.5 4z" />
    <glyph glyph-name="iconjinglei" unicode="&#xe626;" 
d="M157 381q0 138 90.5 240t224.5 118v93q-113 -11 -206 -73t-147 -162t-54 -216t54 -216t147 -162t206 -72v93q-134 15 -224.5 117t-90.5 240zM866 422h92q-15 163 -129.5 279t-275.5 131v-93q123 -15 211 -103.5t102 -213.5zM553 24v-93q161 14 275.5 130t129.5 279h-92
q-14 -124 -102 -213t-211 -103zM594 381q0 34 -24 58t-57.5 24t-57.5 -24t-24 -58t24 -58t57.5 -24t57.5 24t24 58zM511 643q-106 0 -181 -75t-75 -181t75 -181t181 -75t181 75t75 181t-75 181t-181 75zM511.5 220q-69.5 0 -118.5 49t-49 118.5t49 118.5t118.5 49t118.5 -49
t49 -118.5t-49 -118.5t-118.5 -49z" />
    <glyph glyph-name="iconguanjia" unicode="&#xe627;" 
d="M737 832l98 -89l-249 -199l-203 185q-12 9 -23 0q-5 -4 -78.5 -63.5t-144.5 -116.5l-71 -57q-1 -2 -1 -6t1 -13t5 -16t14 -12.5t26 -4.5q32 27 96 80.5t112.5 94l48.5 40.5l203 -185q17 -11 30 0l279 222v0l83 -82v222h-226zM232 304h-105q-6 0 -10.5 -4.5t-4.5 -10.5
v-351h135v351q0 6 -4.5 10.5t-10.5 4.5zM450 395h-105q-6 0 -10.5 -4.5t-4.5 -10.5v-442h135v442q0 6 -4.5 10.5t-10.5 4.5zM668 304h-105q-6 0 -10.5 -4.5t-4.5 -10.5v-351h135v351q0 6 -4.5 10.5t-10.5 4.5zM886 497h-105q-6 0 -10.5 -4.5t-4.5 -10.5v-544h135v544
q0 6 -4.5 10.5t-10.5 4.5z" />
    <glyph glyph-name="iconjie2" unicode="&#xe70d;" 
d="M725 95q33 -62 46 -81q61 44 104 106q-8 5 -37.5 22.5t-41.5 24.5q-30 -41 -71 -72zM552 24q0 -13 0.5 -42.5t0.5 -49.5q77 7 147 40q-6 10 -45 81q-49 -22 -103 -29v0zM864 657q-1 1 -2 4q-62 80 -154 126t-197 46q-90 0 -173 -35.5t-142.5 -96t-95 -144.5t-35.5 -175
q0 -116 54 -216t146.5 -162t205.5 -72q0 19 0.5 49.5t0.5 42.5q-134 15 -225 117t-91 241q0 97 47.5 180t129.5 131t178 48q87 0 162.5 -40t124.5 -108l-1 -4l-93 -94h253v256zM866 382q0 -76 -30 -145q14 -11 80 -47q41 91 41 192q-82 -1 -91 0zM248 381.5
q0 -110.5 77 -188.5t186.5 -78t186.5 78t77 189h-264v267q-109 0 -186 -78.5t-77 -189z" />
    <glyph glyph-name="icongantan" unicode="&#xe70e;" 
d="M640 645q-13 116 -121 123h-13q-108 -7 -121 -116q-2 -16 3 -41.5t18 -66t27 -79t37.5 -105t42.5 -119.5q117 327 127 404zM512.5 180q-41.5 0 -71 -25.5t-29.5 -61.5t29.5 -61t71 -25t71 25t29.5 61t-29.5 61.5t-71 25.5z" />
    <glyph glyph-name="iconxxx" unicode="&#xe70f;" 
d="M960 797l-36 36l-413 -410l-413 410l-36 -36l413 -410l-413 -410l36 -36l413 410l413 -410l36 36l-413 410z" />
    <glyph glyph-name="ch-edit" unicode="&#xe632;" 
d="M805 552l-155 136l-404 -381l156 -136zM215 280l-93 -217l249 81zM805 35h-683q-3 0 -7 -1t-14.5 -5t-19 -9.5t-15 -16t-6.5 -22.5q0 -7 2 -13.5t5.5 -11t8.5 -9t10 -7.5t10 -5t9.5 -3.5t8.5 -2.5l6 -1.5l2 -0.5h683q3 0 7 1t15 5.5t19 10.5t15 15.5t7 21.5t-7 22
t-15 15.5t-19 10t-15 5.5t-7 1v0zM961 742l-93 81q-3 3 -8.5 6.5t-22 4t-32 -10t-39 -31t-38.5 -35.5l-16 -15l156 -136l93 82v0q18 38 0 54z" />
    <glyph glyph-name="ch-ccwj" unicode="&#xe633;" 
d="M346.5 803q-4.5 0 -8 -4t-3.5 -9t3.5 -9t8 -4t8 4t3.5 9t-3.5 9t-8 4zM278 803q-5 0 -8 -4t-3 -9t3 -9t8 -4t8.5 4t3.5 9t-3.5 9t-8.5 4zM209.5 803q-4.5 0 -8 -4t-3.5 -9t3.5 -9t8 -4t8 4t3.5 9t-3.5 9t-8 4zM938 288v0q-8 0 -13.5 -6t-5.5 -15v-87q0 -10 -9 -10t-9 10
v87q0 9 -5.5 15t-13.5 6v0q-8 0 -13.5 -6t-5.5 -15v-87q0 -10 -9 -10t-9 10v87q0 9 -5.5 15t-13.5 6v0q-14 0 -18 -14v-94q0 -10 -9 -10h-1q-9 0 -9 10v87q0 5 1 9v79q0 9 -5.5 15t-13.5 6v0q-8 0 -13.5 -6t-5.5 -15v-227q0 -10 -6.5 -17.5t-15.5 -7.5v0q-16 0 -26.5 12
t-10.5 29v9q0 41 -29 56q-2 1 -4.5 -0.5t-2.5 -5.5v-80q0 -23 14 -39l71 -79q27 -31 35 -73h180v335q0 9 -5.5 15t-13.5 6zM672 227q39 -20 39 -74v-9q0 -8 5.5 -14.5t13.5 -6.5v0q4 0 4 5v227q0 17 11 29t26 12v0q15 0 26 -12t11 -29v-52q8 5 18 5v0q17 0 28 -14
q11 14 28 14v0q10 0 19 -6v423h-746v-366q27 10 55 10q71 0 121 -56t50 -135q0 -34 -10 -66h269q-1 6 -1 11v80q0 14 10.5 22t22.5 2zM504 328q-5 0 -8.5 4t-3.5 9v120l-27 -30q-12 -13 -17 -7q-8 10 0 19l47 53q6 6 11 0l47 -53q8 -9 0 -19q-3 -4 -8 -4q-2 0 -3.5 2t-3 5
t-2.5 4l-27 30v-120q0 -13 -5 -13zM633 368h-82q-5 0 -8.5 3.5t-3.5 9.5t12 6h82q15 0 28 15t13 32t-10.5 31.5t-24.5 14.5q-5 0 -8.5 4t-3.5 9q0 49 -33.5 84t-78.5 35q-40 0 -72.5 -27t-39.5 -68q-2 -11 -11 -11h-12q-19 0 -33 -18.5t-14 -40.5t16.5 -41t36.5 -19h70
q12 0 12 -6t-3.5 -9.5t-8.5 -3.5h-70q-30 0 -50.5 23t-20.5 56t20.5 56t50.5 23h2q11 47 46.5 76.5t80.5 29.5q51 0 88 -38.5t41 -95.5q21 -4 34.5 -22t13.5 -42q0 -28 -17 -47t-42 -19zM209.5 349q-63.5 0 -108.5 -50t-45 -121t45 -121.5t108.5 -50.5t109 50.5t45.5 121.5
t-45.5 121t-109 50zM312 163q0 -10 -9 -10t-9 10v32l-62 -71q-3 -2 -6.5 -2t-6.5 2l-54 61l-54 -60q-7 -7 -13 0t0 14l61 67q6 7 12 0l54 -60l57 63h-29q-9 0 -9 9.5t9 9.5h50h2h0.5h0.5h1l0.5 -0.5l0.5 -0.5q2 -1 3 -3v-0.5v-0.5l1 -1v-1v0v-1v-1v-56zM901 806
q0 15 -9.5 26t-23.5 11h-680q-13 0 -23 -11t-10 -26v-62h746v62zM210 757q-12 0 -20.5 9.5t-8.5 23t8.5 23t20.5 9.5t20.5 -9.5t8.5 -23t-8.5 -23t-20.5 -9.5zM278 757q-12 0 -20.5 9.5t-8.5 23t8.5 23t20.5 9.5t20.5 -9.5t8.5 -23t-8.5 -23t-20.5 -9.5zM347 757
q-12 0 -21 9.5t-9 23t9 23t21 9.5t20.5 -9.5t8.5 -23t-8.5 -23t-20.5 -9.5z" />
    <glyph glyph-name="ch-database" unicode="&#xe634;" 
d="M670 590h2h66v70h-144q7 -29 28 -49t48 -21zM273 166h465v406h-68h-2q-33 2 -58 27t-32 61h-379v-284h40q14 0 24 -11.5t10 -26.5v-172zM239 358h-168q-7 0 -12.5 -6t-5.5 -14v-263h204v263q0 8 -5 14t-13 6zM53 33q0 -9 5.5 -15t12.5 -6h168q8 0 13 6t5 15v24h-204v-24z
M907 721q-4 0 -9 -1q-3 -1 -5.5 1.5t-3.5 6.5q-4 45 -29 72t-57 35q-36 8 -68.5 -8t-51.5 -52q-2 -4 -7 -4q-23 1 -43.5 -12t-30.5 -36h153q16 0 27 -13t11 -31v-89h114q25 0 42 19t17 46t-17 46.5t-42 19.5zM755 705h-572q-10 0 -16.5 -7.5t-6.5 -18.5v-303h23v293q0 9 8 9
h555q8 0 8 -9v-512q0 -9 -8 -9h-473v-26h482q9 0 16 7.5t7 17.5v532q0 11 -7 18.5t-16 7.5zM582 -49h-65v153h-96v-153h-65q-8 0 -8 -9t8 -9h226q8 0 8 9t-8 9z" />
    <glyph glyph-name="ch-dbgl" unicode="&#xe635;" 
d="M694.5 795q-4.5 0 -8 -3.5t-3.5 -9t3.5 -9t8 -3.5t8 3.5t3.5 9t-3.5 9t-8 3.5zM114 87h549v31h-549v-31zM439 276h224v31h-224v-31zM114 181h254v220h-254v-220zM922 833h-386q-13 0 -23 -10.5t-10 -24.5v-59h452v59q0 14 -10 24.5t-23 10.5zM558 751q-12 0 -21 9.5
t-9 22t9 22t21 9.5t20.5 -9.5t8.5 -22t-8.5 -22t-20.5 -9.5zM626 751q-12 0 -20.5 9.5t-8.5 22t8.5 22t20.5 9.5t20.5 -9.5t8.5 -22t-8.5 -22t-20.5 -9.5zM695 751q-12 0 -21 9.5t-9 22t9 22t21 9.5t20.5 -9.5t8.5 -22t-8.5 -22t-20.5 -9.5zM439 370h224v31h-224v-31z
M274 668v-33q5 -7 9.5 -7t6.5 4l2 3v31q0 15 8 26.5t22 11.5q0 -1 25 -1.5t49 0.5l25 1h4l-27 -51q-5 -12 5 -12q5 0 9 3t5 6l2 3l32 60l-32 60q-3 12 -16 12q-5 0 -6 -3t0 -6l1 -3l27 -51q-2 0 -4 1l-25.5 -0.5t-48 -1t-26.5 1.5q-17 0 -30 -12.5t-17 -30.5v-1v-9v-5v3z
M686 569h-592q-14 0 -23.5 -10.5t-9.5 -25.5v-58h658v58q0 15 -10 25.5t-23 10.5zM115 487q-12 0 -20.5 9t-8.5 22t8.5 22t20.5 9t21 -9t9 -22t-9 -22t-21 -9zM184 487q-12 0 -20.5 9t-8.5 22t8.5 22t20.5 9t20.5 -9t8.5 -22t-8.5 -22t-20.5 -9zM252 487q-12 0 -20.5 9
t-8.5 22t8.5 22t20.5 9t21 -9t9 -22t-9 -22t-21 -9zM114 -8h549v32h-549v-32zM557.5 795q-4.5 0 -8 -3.5t-3.5 -9t3.5 -9t8 -3.5t8 3.5t3.5 9t-3.5 9t-8 3.5zM184 530q-5 0 -8.5 -3.5t-3.5 -8.5t3.5 -8.5t8.5 -3.5t8 3.5t3 8.5t-3 8.5t-8 3.5zM503 587l207 1q3 -1 8 -2.5
t13.5 -9.5t8.5 -20q0 -14 -1 -149t-1 -144l217 3v454h-452v-133zM910 199q-4 7 -8.5 7t-6.5 -3l-2 -4v-81q0 -15 -8.5 -26.5t-21.5 -11.5q0 1 -6.5 1.5t-15 0t-17 -0.5h-14.5l-6 -1h-3l27 51q4 12 -6 12q-4 0 -8 -3t-6 -6l-1 -3l-32 -60l32 -60q3 -12 16 -12q10 0 5 12v0
l-27 51h4q0 -1 14.5 -0.5t28 1t15.5 -1.5q21 0 35.5 17.5t11.5 40.5v-2v6v76zM252.5 530q-4.5 0 -8 -3.5t-3.5 -8.5t3.5 -8.5t8 -3.5t8 3.5t3.5 8.5t-3.5 8.5t-8 3.5zM626 795q-5 0 -8 -3.5t-3 -9t3 -9t8 -3.5t8.5 3.5t3.5 9t-3.5 9t-8.5 3.5zM61 -65h426q8 1 59.5 0
t112 -0.5t60.5 4.5v517h-658v-521zM421 420h260v-69h-260v69zM421 326h260v-69h-260v69zM421 232h260v-70h-260v70zM97 420h289v-258h-289v258zM97 137h584v-69h-584v69zM97 43h584v-70h-584v70zM115.5 530q-4.5 0 -8 -3.5t-3.5 -8.5t3.5 -8.5t8 -3.5t8 3.5t3.5 8.5
t-3.5 8.5t-8 3.5zM439 181h224v32h-224v-32z" />
    <glyph glyph-name="ch-ky" unicode="&#xe636;" 
d="M202 412q-6 0 -10.5 -4.5t-4.5 -10.5v-309q0 -6 4.5 -10.5t10.5 -4.5h73q6 0 10.5 4.5t4.5 10.5v309q0 6 -4.5 10.5t-10.5 4.5h-73zM380 412q-6 0 -10.5 -4.5t-4.5 -10.5v-309q0 -6 4.5 -10.5t10.5 -4.5h73q6 0 10.5 4.5t4.5 10.5v309q0 6 -4.5 10.5t-10.5 4.5h-73z
M568 412q-7 0 -11 -4.5t-4 -10.5v-309q0 -6 4 -10.5t11 -4.5h73q6 0 10.5 4.5t4.5 10.5v309q0 6 -4.5 10.5t-10.5 4.5h-73zM746 412q-6 0 -10.5 -4.5t-4.5 -10.5v-309q0 -6 4.5 -10.5t10.5 -4.5h73q6 0 10.5 4.5t4.5 10.5v309q0 6 -4.5 10.5t-10.5 4.5h-73zM134 468h758
q7 0 11 4.5t4 10.5v55q0 6 -4 10.5t-11 4.5h-758q-6 0 -10.5 -4.5t-4.5 -10.5v-55q0 -6 4.5 -10.5t10.5 -4.5zM949 17h-871q-6 0 -10.5 -4.5t-4.5 -10.5v-55q0 -6 4.5 -10.5t10.5 -4.5h871q6 0 10.5 4.5t4.5 10.5v55q0 6 -4.5 10.5t-10.5 4.5zM528 835l-395 -226h760z" />
    <glyph glyph-name="ch-sjfx" unicode="&#xe637;" 
d="M851 667q-61 76 -152.5 120t-195.5 44q-120 0 -221 -56t-160 -153t-59 -211q0 -108 53 -201t144.5 -151t202.5 -67v86q-132 15 -221 109.5t-89 223.5q0 90 47 167.5t127.5 122t175.5 44.5q86 0 160.5 -37.5t123.5 -101.5l-94 -90h250v239zM543 78v-86q76 6 145 37l-45 75
q-48 -20 -100 -26zM712 143l45 -75q61 41 104 99l-78 43q-30 -38 -71 -67zM823 276l79 -43q41 84 41 178h-90q0 -71 -30 -135zM503 411v248q-108 0 -184 -72.5t-76 -175.5t76 -176t183.5 -73t184 73t76.5 176h-260z" />
    <glyph glyph-name="arr-up" unicode="&#xe639;" 
d="M929 253l-369 363q-20 21 -49 21t-49 -21l-368 -363q-21 -20 -21 -48.5t20.5 -49t49.5 -20.5t49 20l319 315l319 -315q20 -20 49 -20t49.5 20.5t20.5 49t-20 48.5z" />
    <glyph glyph-name="arr-right" unicode="&#xe63a;" 
d="M803 439l-460 377q-26 21 -62.5 21t-62 -21t-25.5 -50.5t26 -50.5l398 -327l-398 -327q-26 -21 -26 -50.5t25.5 -50.5t62 -21t62.5 21l460 377q26 21 26 51t-26 51z" />
    <glyph glyph-name="ch-count" unicode="&#xe63b;" 
d="M208 386h114v166h151v124h-151v165h-114v-165h-151v-124h151v-166zM851 841l-756 -827l76 -83l755 828zM586 303v-124h378v124h-378zM586 -28h378v124h-378v-124z" />
    <glyph glyph-name="descending" unicode="&#xe63c;" 
d="M894 333l-109 -151v656h-109v-656l-109 151l-72 -101l217 -302h37l218 302zM59 687h363v151h-363v-151zM59 333h363v152h-363v-152zM59 -20h363v151h-363v-151z" />
    <glyph glyph-name="ascending" unicode="&#xe63d;" 
d="M750 835h-37l-219 -301l73 -101l110 151v-654h109v654l110 -151l73 101zM56 685h365v150h-365v-150zM56 333h365v150h-365v-150zM56 -20h365v151h-365v-151z" />
    <glyph glyph-name="source-a" unicode="&#xe63e;" 
d="M886 837h-752q-33 0 -56.5 -23t-23.5 -56v-751q0 -33 23.5 -56t56.5 -23h752q33 0 56 23t23 56v751q0 33 -23 56t-56 23zM609 125h-396v119h396v-119zM767 323h-554v119h554v-119zM767 521h-554v119h554v-119z" />
    <glyph glyph-name="source-b" unicode="&#xe63f;" 
d="M893 841h-756q-33 0 -56.5 -23.5t-23.5 -55.5v-752q0 -32 23.5 -55.5t56.5 -23.5h756q33 0 56 23.5t23 55.5v752q0 32 -23 55.5t-56 23.5zM853 406h-401l3 -356h-119l-2 356h-157v118h157l2 198h119v-198h398v-118z" />
    <glyph glyph-name="source-c" unicode="&#xe640;" 
d="M59 748v-726l2.5 -10t8 -22t15 -28t22.5 -21.5t31 -9.5h747q3 0 8.5 1t19 6.5t24 14.5t19 27t8.5 42v590l-2.5 10t-8 21.5t-14.5 27.5t-22.5 22t-31.5 10h-354v45q0 4 -1.5 10t-7 22t-13 28t-23 21.5t-34.5 9.5h-314q-4 0 -9 -1t-18.5 -6.5t-24 -14t-19 -27t-8.5 -42.5z
" />
    <glyph glyph-name="assess-product-a" unicode="&#xe641;" 
d="M315 842v-153h657v153h-657zM315 309h657v152h-657v-152zM315 -71h657v152h-657v-152zM53 689h131v153h-131v-153zM53 309h131v152h-131v-152zM53 -71h131v152h-131v-152z" />
    <glyph glyph-name="assess-product-b" unicode="&#xe642;" 
d="M108 226l244 54l-110 -349l245 59l259 830q-48 -81 -131.5 -172t-168 -163t-163 -132.5t-126.5 -93.5t-49 -33zM746 791l-144 -674l153 -137l63 285q2 -1 148 -113q-52 79 -93.5 174t-64.5 174t-38 146.5t-20 105.5zM295 378q14 11 38.5 30.5t90.5 77t122.5 111
t115.5 122t88 121.5q-16 -16 -46 -42.5t-116 -97.5t-166.5 -130.5t-182.5 -120t-179 -86.5q166 15 235 15zM343 270l-110 -25l-96 -196l139 14z" />
    <glyph glyph-name="assess-product-c" unicode="&#xe643;" 
d="M821 745q-71 50 -157.5 72.5t-175.5 15.5l38 -365zM958 543q-3 19 -7 33q-11 37 -31 70q-22 35 -53 62q-4 4 -17 15l-297 -280l410 -30q3 25 3 50q0 41 -8 80zM450 828q-82 -14 -155 -53q-77 -41 -132 -104l325 -207zM140 643q-51 -68 -71.5 -149t-7.5 -163l405 104z
M68 296q1 -8 2 -11q11 -39 33.5 -75.5t54.5 -64.5q6 -6 16 -14q59 -48 132 -76l171 346zM523 410l-11 -22l-170 -345q161 -48 318 8v0l162 -122l-32 191v0q66 50 108.5 116.5t58.5 141.5l-409 30z" />
    <glyph glyph-name="date-ch" unicode="&#xe644;" 
d="M287 180h-76v-82h76v82zM287 505h-76v-81h76v81zM890 749v81h-226v-81h-302v81h-226v-81h-76v-813h905v813h-75zM211 749h76v-81h-76v81zM362 17h-226v244h226v-244zM362 342h-226v244h226v-244zM739 749h75v-81h-75v81zM626 17h-226v244h226v-244zM626 342h-226v244h226
v-244zM890 17h-226v244h226v-244zM890 342h-226v244h226v-244zM814 180h-75v-82h75v82zM550 180h-75v-82h75v82zM550 505h-75v-81h75v81zM814 505h-75v-81h75v81z" />
  </font>
</defs>
</svg>
